<svg width="466" height="157" viewBox="0 0 466 157" fill="none" xmlns="http://www.w3.org/2000/svg">
<path d="M71.76 69.76C71.76 75.52 70.72 80.96 68.64 86.08C66.64 91.12 63.8 95.6 60.12 99.52C56.44 103.44 52.12 106.52 47.16 108.76C42.28 110.92 37 112 31.32 112H6V27.64H31.32C37.08 27.64 42.4 28.76 47.28 31C52.24 33.24 56.52 36.32 60.12 40.24C63.8 44.16 66.64 48.64 68.64 53.68C70.72 58.72 71.76 64.08 71.76 69.76ZM56.88 69.76C56.88 64.56 55.76 59.92 53.52 55.84C51.28 51.68 48.2 48.4 44.28 46C40.44 43.6 36.12 42.4 31.32 42.4H20.4V97.24H31.32C36.2 97.24 40.56 96 44.4 93.52C48.24 91.04 51.28 87.72 53.52 83.56C55.76 79.4 56.88 74.8 56.88 69.76ZM110.363 113.56C104.603 113.56 99.5234 112.32 95.1234 109.84C90.8034 107.28 87.4034 103.76 84.9234 99.28C82.5234 94.72 81.3234 89.44 81.3234 83.44C81.3234 72.88 83.9634 64.92 89.2434 59.56C94.6034 54.12 101.643 51.4 110.363 51.4C116.043 51.4 121.043 52.6 125.363 55C129.763 57.4 133.203 61 135.683 65.8C138.163 70.52 139.403 76.4 139.403 83.44C139.403 89.44 138.163 94.72 135.683 99.28C133.203 103.76 129.763 107.28 125.363 109.84C121.043 112.32 116.043 113.56 110.363 113.56ZM110.363 99.76C113.643 99.76 116.403 99 118.643 97.48C120.963 95.88 122.683 93.84 123.803 91.36C125.003 88.88 125.603 86.24 125.603 83.44C125.603 78.4 124.283 74.12 121.643 70.6C119.083 67 115.323 65.2 110.363 65.2C105.563 65.2 101.803 66.92 99.0834 70.36C96.4434 73.8 95.1234 78.16 95.1234 83.44C95.1234 86.32 95.7234 89 96.9234 91.48C98.1234 93.96 99.8434 95.96 102.083 97.48C104.403 99 107.163 99.76 110.363 99.76ZM197.714 103.72C193.714 107.56 189.394 110.2 184.754 111.64C180.114 113.08 175.554 113.44 171.074 112.72C166.594 112 162.514 110.32 158.834 107.68C155.154 105.04 152.194 101.56 149.954 97.24C147.794 92.92 146.714 87.84 146.714 82C146.714 76 147.794 70.84 149.954 66.52C152.114 62.12 155.034 58.68 158.714 56.2C162.394 53.64 166.474 52.08 170.954 51.52C175.434 50.96 180.034 51.48 184.754 53.08C189.474 54.6 193.914 57.28 198.074 61.12L188.474 71.32C186.074 68.44 183.314 66.64 180.194 65.92C177.154 65.2 174.154 65.4 171.194 66.52C168.314 67.64 165.914 69.56 163.994 72.28C162.154 74.92 161.234 78.16 161.234 82C161.234 86.16 162.154 89.6 163.994 92.32C165.914 95.04 168.314 96.96 171.194 98.08C174.074 99.12 177.114 99.28 180.314 98.56C183.514 97.76 186.434 95.96 189.074 93.16L197.714 103.72ZM208.852 112V28H223.252V68.08L237.892 51.76H256.732L234.292 77.08L259.132 112H242.212L223.252 86.92V112H208.852ZM309.146 112H270.266V28H276.506V106.24H309.146V112ZM324.745 43.6C323.465 43.6 322.345 43.12 321.385 42.16C320.425 41.2 319.945 40.08 319.945 38.8C319.945 37.44 320.425 36.32 321.385 35.44C322.345 34.48 323.465 34 324.745 34C326.105 34 327.225 34.48 328.105 35.44C329.065 36.32 329.545 37.44 329.545 38.8C329.545 40.08 329.065 41.2 328.105 42.16C327.225 43.12 326.105 43.6 324.745 43.6ZM327.865 112H321.625V52H327.865V112ZM393.108 112H386.868V76C386.868 71.68 385.948 68.16 384.108 65.44C382.268 62.72 379.828 60.72 376.788 59.44C373.828 58.08 370.588 57.4 367.068 57.4C363.788 57.4 360.668 58.16 357.708 59.68C354.748 61.12 352.348 63.24 350.508 66.04C348.668 68.76 347.748 72.08 347.748 76V112H341.508V52H347.748V59.92C349.988 56.96 352.788 54.76 356.148 53.32C359.508 51.88 363.148 51.2 367.068 51.28C371.548 51.28 375.748 52.16 379.668 53.92C383.668 55.68 386.908 58.4 389.388 62.08C391.868 65.68 393.108 70.32 393.108 76V112ZM458.812 83.2H409.012C409.012 89.44 410.372 94.48 413.092 98.32C415.892 102.08 419.532 104.68 424.012 106.12C428.572 107.48 433.452 107.64 438.652 106.6C443.932 105.56 449.052 103.28 454.012 99.76L457.132 104.8C453.532 107.52 449.692 109.56 445.612 110.92C441.612 112.2 437.492 112.92 433.252 113.08C423.412 113.48 415.772 110.76 410.332 104.92C404.892 99 402.172 90.84 402.172 80.44C402.172 71.48 404.612 64.4 409.492 59.2C414.372 54 421.772 51.4 431.692 51.4C437.852 51.4 443.132 52.68 447.532 55.24C452.012 57.8 455.252 61.6 457.252 66.64C458.132 68.88 458.692 71.4 458.932 74.2C459.172 77 459.132 80 458.812 83.2ZM431.692 57.4C427.772 57.4 424.092 58.04 420.652 59.32C417.212 60.6 414.412 62.68 412.252 65.56C410.092 68.36 409.012 72.2 409.012 77.08H452.812C452.812 70.36 450.892 65.4 447.052 62.2C443.212 59 438.092 57.4 431.692 57.4Z" fill="white"/>
<path d="M15.8118 150.286C14.3437 150.286 12.9804 150.029 11.722 149.514C10.4636 148.999 9.35773 148.284 8.4044 147.369C7.45107 146.454 6.70747 145.376 6.1736 144.137C5.6588 142.879 5.4014 141.515 5.4014 140.047C5.4014 138.579 5.6588 137.225 6.1736 135.986C6.70747 134.728 7.432 133.641 8.3472 132.726C9.28147 131.81 10.3683 131.105 11.6076 130.609C12.866 130.094 14.2102 129.837 15.6402 129.837C16.6507 129.837 17.6422 129.98 18.6146 130.266C19.6061 130.552 20.5022 130.952 21.303 131.467C22.1038 131.982 22.7521 132.564 23.2478 133.212L21.7606 134.728C21.2267 134.175 20.6261 133.698 19.9588 133.298C19.2915 132.897 18.586 132.583 17.8424 132.354C17.1179 132.125 16.3933 132.011 15.6688 132.011C14.5439 132.011 13.4952 132.211 12.5228 132.611C11.5695 133.012 10.7305 133.574 10.006 134.299C9.28147 135.004 8.719 135.853 8.3186 136.844C7.9182 137.816 7.718 138.884 7.718 140.047C7.718 141.172 7.9182 142.23 8.3186 143.222C8.73807 144.194 9.3196 145.052 10.0632 145.796C10.8259 146.52 11.7029 147.083 12.6944 147.483C13.6859 147.884 14.7536 148.084 15.8976 148.084C16.7937 148.084 17.6327 147.95 18.4144 147.683C19.2152 147.416 19.9111 147.045 20.5022 146.568C21.0933 146.072 21.5509 145.5 21.875 144.852C22.1991 144.204 22.3612 143.508 22.3612 142.764V141.763L22.8188 142.335H15.7832V140.133H24.592C24.6111 140.286 24.6301 140.467 24.6492 140.676C24.6683 140.867 24.6778 141.067 24.6778 141.277C24.6969 141.468 24.7064 141.649 24.7064 141.82C24.7064 143.06 24.4776 144.204 24.02 145.252C23.5624 146.282 22.9237 147.178 22.1038 147.941C21.303 148.684 20.3687 149.266 19.301 149.685C18.2333 150.086 17.0702 150.286 15.8118 150.286ZM34.5068 150.286C33.0196 150.286 31.6945 149.962 30.5314 149.314C29.3874 148.665 28.4913 147.76 27.843 146.597C27.1948 145.434 26.8706 144.099 26.8706 142.593C26.8706 141.43 27.0518 140.381 27.414 139.447C27.7763 138.493 28.2816 137.664 28.9298 136.958C29.5972 136.253 30.3884 135.71 31.3036 135.328C32.2188 134.928 33.2103 134.728 34.278 134.728C35.2886 134.728 36.2038 134.909 37.0236 135.271C37.8626 135.633 38.5776 136.139 39.1686 136.787C39.7788 137.416 40.2364 138.169 40.5414 139.046C40.8465 139.923 40.98 140.886 40.9418 141.935L40.9132 142.936H28.4722L28.1576 141.134H39.283L38.7682 141.62V140.934C38.7301 140.247 38.5299 139.59 38.1676 138.96C37.8054 138.312 37.2906 137.788 36.6232 137.387C35.975 136.987 35.1932 136.787 34.278 136.787C33.2103 136.787 32.2856 137.006 31.5038 137.445C30.7221 137.864 30.1215 138.493 29.702 139.332C29.2826 140.171 29.0728 141.21 29.0728 142.45C29.0728 143.632 29.3016 144.661 29.7592 145.538C30.2168 146.396 30.8651 147.064 31.704 147.54C32.562 148.017 33.5916 148.255 34.7928 148.255C35.4983 148.255 36.1942 148.141 36.8806 147.912C37.5861 147.664 38.3583 147.188 39.1972 146.482L40.3126 148.027C39.8741 148.465 39.3498 148.856 38.7396 149.199C38.1295 149.523 37.4622 149.79 36.7376 150C36.0131 150.191 35.2695 150.286 34.5068 150.286ZM48.879 150.286C47.6015 150.286 46.4575 150.048 45.447 149.571C44.4365 149.094 43.6357 148.465 43.0446 147.683L44.5604 146.368C45.1133 147.035 45.7616 147.54 46.5052 147.884C47.2679 148.227 48.1163 148.398 49.0506 148.398C49.5273 148.398 49.9563 148.351 50.3376 148.255C50.7189 148.141 51.0526 147.979 51.3386 147.769C51.6246 147.559 51.8439 147.312 51.9964 147.026C52.1489 146.74 52.2252 146.425 52.2252 146.082C52.2252 145.453 51.9487 144.928 51.3958 144.509C51.1479 144.337 50.7952 144.166 50.3376 143.994C49.88 143.803 49.3271 143.622 48.6788 143.451C47.6111 143.146 46.7245 142.84 46.019 142.535C45.3135 142.211 44.7606 141.839 44.3602 141.42C44.0742 141.077 43.8549 140.705 43.7024 140.305C43.5689 139.904 43.5022 139.466 43.5022 138.989C43.5022 138.379 43.6261 137.816 43.874 137.302C44.1409 136.787 44.5032 136.339 44.9608 135.957C45.4375 135.557 45.9904 135.261 46.6196 135.071C47.2679 134.861 47.9638 134.756 48.7074 134.756C49.4129 134.756 50.1088 134.852 50.7952 135.042C51.4816 135.233 52.1203 135.509 52.7114 135.872C53.3025 136.234 53.8077 136.663 54.2272 137.159L52.9116 138.589C52.5493 138.207 52.1489 137.864 51.7104 137.559C51.2719 137.254 50.8047 137.016 50.309 136.844C49.8323 136.672 49.3366 136.587 48.8218 136.587C48.3642 136.587 47.9352 136.644 47.5348 136.758C47.1535 136.873 46.8198 137.035 46.5338 137.244C46.2669 137.435 46.0571 137.673 45.9046 137.959C45.7711 138.245 45.7044 138.56 45.7044 138.903C45.7044 139.189 45.7616 139.447 45.876 139.675C45.9904 139.904 46.1525 140.104 46.3622 140.276C46.6291 140.486 47.0009 140.686 47.4776 140.877C47.9733 141.048 48.5835 141.229 49.308 141.42C50.1469 141.649 50.8524 141.887 51.4244 142.135C52.0155 142.364 52.5017 142.64 52.883 142.964C53.3978 143.346 53.7601 143.784 53.9698 144.28C54.1986 144.776 54.313 145.338 54.313 145.967C54.313 146.806 54.0747 147.55 53.598 148.198C53.1404 148.846 52.5017 149.361 51.6818 149.743C50.8619 150.105 49.9277 150.286 48.879 150.286ZM59.7331 150V131.153H61.8781V150H59.7331ZM56.3583 137.13V135.071H65.6533V137.13H56.3583ZM68.8592 150V135.071H71.0042V150H68.8592ZM69.9174 131.839C69.3836 131.839 68.9736 131.706 68.6876 131.439C68.4207 131.153 68.2872 130.771 68.2872 130.295C68.2872 129.818 68.4302 129.437 68.7162 129.151C69.0022 128.865 69.4026 128.722 69.9174 128.722C70.4322 128.722 70.8326 128.865 71.1186 129.151C71.4046 129.418 71.5476 129.799 71.5476 130.295C71.5476 130.752 71.4046 131.124 71.1186 131.41C70.8326 131.696 70.4322 131.839 69.9174 131.839ZM82.2952 150.286C80.808 150.286 79.4829 149.952 78.3198 149.285C77.1758 148.618 76.2701 147.693 75.6028 146.511C74.9545 145.329 74.6304 143.984 74.6304 142.478C74.6304 140.991 74.9545 139.666 75.6028 138.503C76.2701 137.34 77.1758 136.425 78.3198 135.757C79.4829 135.09 80.808 134.756 82.2952 134.756C83.7633 134.756 85.0694 135.09 86.2134 135.757C87.3765 136.425 88.2821 137.34 88.9304 138.503C89.5977 139.666 89.9314 140.991 89.9314 142.478C89.9314 143.984 89.5977 145.329 88.9304 146.511C88.2821 147.693 87.3765 148.618 86.2134 149.285C85.0694 149.952 83.7633 150.286 82.2952 150.286ZM82.2952 148.255C83.3439 148.255 84.2781 148.008 85.098 147.512C85.9179 146.997 86.5566 146.311 87.0142 145.453C87.4718 144.576 87.7006 143.584 87.7006 142.478C87.7006 141.372 87.4718 140.39 87.0142 139.532C86.5566 138.674 85.9179 138.007 85.098 137.53C84.2781 137.035 83.3439 136.787 82.2952 136.787C81.2465 136.787 80.3027 137.035 79.4638 137.53C78.6439 138.007 77.9957 138.684 77.519 139.561C77.0614 140.419 76.8421 141.391 76.8612 142.478C76.8421 143.584 77.0614 144.576 77.519 145.453C77.9957 146.311 78.6439 146.997 79.4638 147.512C80.3027 148.008 81.2465 148.255 82.2952 148.255ZM93.0609 150V135.071H95.1773L95.2631 138.188L94.9199 138.331C95.1105 137.683 95.4823 137.092 96.0353 136.558C96.5882 136.024 97.246 135.595 98.0087 135.271C98.7904 134.928 99.5912 134.756 100.411 134.756C101.517 134.756 102.442 134.975 103.185 135.414C103.929 135.853 104.491 136.529 104.873 137.445C105.254 138.36 105.445 139.523 105.445 140.934V150H103.271V141.048C103.271 140.057 103.138 139.246 102.871 138.617C102.623 137.969 102.232 137.492 101.698 137.187C101.164 136.882 100.506 136.739 99.7247 136.758C99.0764 136.758 98.4758 136.873 97.9229 137.101C97.3699 137.311 96.8933 137.607 96.4929 137.988C96.0925 138.369 95.7779 138.808 95.5491 139.304C95.3203 139.799 95.2059 140.333 95.2059 140.905V150H94.1477C94.0142 150 93.8617 150 93.6901 150C93.5185 150 93.3087 150 93.0609 150ZM123.618 150.286C122.265 150.286 121.044 149.952 119.958 149.285C118.89 148.618 118.041 147.702 117.412 146.539C116.802 145.357 116.497 144.023 116.497 142.535C116.497 141.029 116.812 139.694 117.441 138.531C118.07 137.349 118.918 136.425 119.986 135.757C121.054 135.09 122.255 134.756 123.59 134.756C124.333 134.756 125.048 134.871 125.735 135.099C126.44 135.328 127.069 135.652 127.622 136.072C128.175 136.472 128.633 136.939 128.995 137.473C129.357 137.988 129.577 138.531 129.653 139.103L128.995 138.875V128.836H131.14V150H129.024L128.967 146.282L129.51 146.082C129.434 146.616 129.214 147.14 128.852 147.655C128.509 148.151 128.07 148.599 127.537 148.999C127.003 149.399 126.393 149.714 125.706 149.943C125.039 150.172 124.343 150.286 123.618 150.286ZM123.933 148.313C124.924 148.313 125.811 148.065 126.593 147.569C127.375 147.073 127.985 146.387 128.423 145.51C128.881 144.633 129.11 143.632 129.11 142.507C129.11 141.382 128.881 140.39 128.423 139.532C127.985 138.655 127.375 137.969 126.593 137.473C125.811 136.958 124.924 136.701 123.933 136.701C122.903 136.701 121.998 136.958 121.216 137.473C120.453 137.969 119.843 138.655 119.386 139.532C118.947 140.39 118.728 141.382 118.728 142.507C118.728 143.613 118.947 144.604 119.386 145.481C119.824 146.358 120.434 147.054 121.216 147.569C121.998 148.065 122.903 148.313 123.933 148.313ZM141.896 150.286C140.409 150.286 139.084 149.962 137.921 149.314C136.777 148.665 135.881 147.76 135.233 146.597C134.584 145.434 134.26 144.099 134.26 142.593C134.26 141.43 134.441 140.381 134.804 139.447C135.166 138.493 135.671 137.664 136.319 136.958C136.987 136.253 137.778 135.71 138.693 135.328C139.608 134.928 140.6 134.728 141.668 134.728C142.678 134.728 143.593 134.909 144.413 135.271C145.252 135.633 145.967 136.139 146.558 136.787C147.168 137.416 147.626 138.169 147.931 139.046C148.236 139.923 148.37 140.886 148.331 141.935L148.303 142.936H135.862L135.547 141.134H146.673L146.158 141.62V140.934C146.12 140.247 145.92 139.59 145.557 138.96C145.195 138.312 144.68 137.788 144.013 137.387C143.365 136.987 142.583 136.787 141.668 136.787C140.6 136.787 139.675 137.006 138.893 137.445C138.112 137.864 137.511 138.493 137.092 139.332C136.672 140.171 136.462 141.21 136.462 142.45C136.462 143.632 136.691 144.661 137.149 145.538C137.606 146.396 138.255 147.064 139.094 147.54C139.952 148.017 140.981 148.255 142.182 148.255C142.888 148.255 143.584 148.141 144.27 147.912C144.976 147.664 145.748 147.188 146.587 146.482L147.702 148.027C147.264 148.465 146.739 148.856 146.129 149.199C145.519 149.523 144.852 149.79 144.127 150C143.403 150.191 142.659 150.286 141.896 150.286ZM156.269 150.286C154.991 150.286 153.847 150.048 152.837 149.571C151.826 149.094 151.025 148.465 150.434 147.683L151.95 146.368C152.503 147.035 153.151 147.54 153.895 147.884C154.658 148.227 155.506 148.398 156.44 148.398C156.917 148.398 157.346 148.351 157.727 148.255C158.109 148.141 158.442 147.979 158.728 147.769C159.014 147.559 159.234 147.312 159.386 147.026C159.539 146.74 159.615 146.425 159.615 146.082C159.615 145.453 159.338 144.928 158.785 144.509C158.538 144.337 158.185 144.166 157.727 143.994C157.27 143.803 156.717 143.622 156.068 143.451C155.001 143.146 154.114 142.84 153.409 142.535C152.703 142.211 152.15 141.839 151.75 141.42C151.464 141.077 151.245 140.705 151.092 140.305C150.959 139.904 150.892 139.466 150.892 138.989C150.892 138.379 151.016 137.816 151.264 137.302C151.531 136.787 151.893 136.339 152.35 135.957C152.827 135.557 153.38 135.261 154.009 135.071C154.658 134.861 155.353 134.756 156.097 134.756C156.803 134.756 157.498 134.852 158.185 135.042C158.871 135.233 159.51 135.509 160.101 135.872C160.692 136.234 161.197 136.663 161.617 137.159L160.301 138.589C159.939 138.207 159.539 137.864 159.1 137.559C158.662 137.254 158.194 137.016 157.699 136.844C157.222 136.672 156.726 136.587 156.211 136.587C155.754 136.587 155.325 136.644 154.924 136.758C154.543 136.873 154.209 137.035 153.923 137.244C153.657 137.435 153.447 137.673 153.294 137.959C153.161 138.245 153.094 138.56 153.094 138.903C153.094 139.189 153.151 139.447 153.266 139.675C153.38 139.904 153.542 140.104 153.752 140.276C154.019 140.486 154.391 140.686 154.867 140.877C155.363 141.048 155.973 141.229 156.698 141.42C157.537 141.649 158.242 141.887 158.814 142.135C159.405 142.364 159.891 142.64 160.273 142.964C160.787 143.346 161.15 143.784 161.359 144.28C161.588 144.776 161.703 145.338 161.703 145.967C161.703 146.806 161.464 147.55 160.988 148.198C160.53 148.846 159.891 149.361 159.071 149.743C158.252 150.105 157.317 150.286 156.269 150.286ZM180.658 150.286C179.953 150.286 179.267 150.181 178.599 149.971C177.932 149.743 177.322 149.438 176.769 149.056C176.235 148.675 175.777 148.236 175.396 147.741C175.034 147.245 174.786 146.73 174.652 146.196L175.282 146.225L175.196 149.971H173.079V128.836H175.224V138.646L174.795 138.76C174.929 138.226 175.167 137.721 175.51 137.244C175.873 136.749 176.321 136.32 176.855 135.957C177.388 135.576 177.97 135.281 178.599 135.071C179.247 134.861 179.915 134.756 180.601 134.756C181.936 134.756 183.128 135.09 184.176 135.757C185.244 136.425 186.092 137.34 186.722 138.503C187.351 139.666 187.665 141.001 187.665 142.507C187.665 144.013 187.36 145.357 186.75 146.539C186.14 147.702 185.301 148.618 184.233 149.285C183.185 149.952 181.993 150.286 180.658 150.286ZM180.315 148.255C181.326 148.255 182.222 148.008 183.004 147.512C183.785 146.997 184.395 146.311 184.834 145.453C185.292 144.576 185.52 143.594 185.52 142.507C185.52 141.401 185.292 140.419 184.834 139.561C184.395 138.703 183.785 138.026 183.004 137.53C182.222 137.035 181.326 136.787 180.315 136.787C179.305 136.787 178.409 137.035 177.627 137.53C176.845 138.026 176.225 138.703 175.768 139.561C175.329 140.419 175.11 141.401 175.11 142.507C175.11 143.613 175.329 144.604 175.768 145.481C176.225 146.339 176.845 147.016 177.627 147.512C178.409 148.008 179.305 148.255 180.315 148.255ZM196.621 150.286C195.325 150.286 194.152 149.952 193.103 149.285C192.055 148.599 191.225 147.674 190.615 146.511C190.005 145.329 189.7 143.994 189.7 142.507C189.7 141.001 190.015 139.666 190.644 138.503C191.273 137.34 192.112 136.425 193.161 135.757C194.228 135.09 195.42 134.756 196.736 134.756C197.517 134.756 198.242 134.871 198.909 135.099C199.577 135.328 200.168 135.652 200.682 136.072C201.216 136.472 201.655 136.949 201.998 137.502C202.36 138.036 202.608 138.617 202.742 139.246L202.112 138.932L202.198 135.071H204.343V150H202.17V146.339L202.742 145.967C202.608 146.539 202.351 147.092 201.969 147.626C201.588 148.141 201.121 148.599 200.568 148.999C200.034 149.399 199.424 149.714 198.738 149.943C198.07 150.172 197.365 150.286 196.621 150.286ZM197.107 148.227C198.099 148.227 198.985 147.988 199.767 147.512C200.549 147.016 201.159 146.339 201.598 145.481C202.055 144.604 202.284 143.613 202.284 142.507C202.284 141.401 202.055 140.419 201.598 139.561C201.159 138.703 200.549 138.026 199.767 137.53C198.985 137.035 198.099 136.787 197.107 136.787C196.097 136.787 195.201 137.035 194.419 137.53C193.656 138.026 193.046 138.703 192.589 139.561C192.15 140.419 191.931 141.401 191.931 142.507C191.931 143.594 192.15 144.576 192.589 145.453C193.027 146.311 193.637 146.987 194.419 147.483C195.201 147.979 196.097 148.227 197.107 148.227ZM210.581 150V131.153H212.726V150H210.581ZM207.207 137.13V135.071H216.502V137.13H207.207ZM225.574 150.286C224.087 150.286 222.761 149.962 221.598 149.314C220.454 148.665 219.558 147.76 218.91 146.597C218.262 145.434 217.938 144.099 217.938 142.593C217.938 141.43 218.119 140.381 218.481 139.447C218.843 138.493 219.349 137.664 219.997 136.958C220.664 136.253 221.455 135.71 222.371 135.328C223.286 134.928 224.277 134.728 225.345 134.728C226.356 134.728 227.271 134.909 228.091 135.271C228.93 135.633 229.645 136.139 230.236 136.787C230.846 137.416 231.303 138.169 231.608 139.046C231.913 139.923 232.047 140.886 232.009 141.935L231.98 142.936H219.539L219.225 141.134H230.35L229.835 141.62V140.934C229.797 140.247 229.597 139.59 229.235 138.96C228.872 138.312 228.358 137.788 227.69 137.387C227.042 136.987 226.26 136.787 225.345 136.787C224.277 136.787 223.353 137.006 222.571 137.445C221.789 137.864 221.188 138.493 220.769 139.332C220.35 140.171 220.14 141.21 220.14 142.45C220.14 143.632 220.369 144.661 220.826 145.538C221.284 146.396 221.932 147.064 222.771 147.54C223.629 148.017 224.659 148.255 225.86 148.255C226.565 148.255 227.261 148.141 227.948 147.912C228.653 147.664 229.425 147.188 230.264 146.482L231.38 148.027C230.941 148.465 230.417 148.856 229.807 149.199C229.196 149.523 228.529 149.79 227.805 150C227.08 150.191 226.336 150.286 225.574 150.286ZM240.89 150.286C239.593 150.286 238.421 149.952 237.372 149.285C236.323 148.599 235.494 147.674 234.884 146.511C234.274 145.329 233.969 143.994 233.969 142.507C233.969 141.001 234.283 139.666 234.912 138.503C235.542 137.34 236.381 136.425 237.429 135.757C238.497 135.09 239.689 134.756 241.004 134.756C241.786 134.756 242.51 134.871 243.178 135.099C243.845 135.328 244.436 135.652 244.951 136.072C245.485 136.472 245.923 136.949 246.267 137.502C246.629 138.036 246.877 138.617 247.01 139.246L246.381 138.932L246.467 135.071H248.612V150H246.438V146.339L247.01 145.967C246.877 146.539 246.619 147.092 246.238 147.626C245.857 148.141 245.39 148.599 244.837 148.999C244.303 149.399 243.693 149.714 243.006 149.943C242.339 150.172 241.633 150.286 240.89 150.286ZM241.376 148.227C242.367 148.227 243.254 147.988 244.036 147.512C244.818 147.016 245.428 146.339 245.866 145.481C246.324 144.604 246.553 143.613 246.553 142.507C246.553 141.401 246.324 140.419 245.866 139.561C245.428 138.703 244.818 138.026 244.036 137.53C243.254 137.035 242.367 136.787 241.376 136.787C240.365 136.787 239.469 137.035 238.688 137.53C237.925 138.026 237.315 138.703 236.857 139.561C236.419 140.419 236.199 141.401 236.199 142.507C236.199 143.594 236.419 144.576 236.857 145.453C237.296 146.311 237.906 146.987 238.688 147.483C239.469 147.979 240.365 148.227 241.376 148.227ZM257.802 150.286C256.658 150.286 255.686 150.057 254.885 149.6C254.103 149.123 253.503 148.437 253.083 147.54C252.683 146.644 252.483 145.529 252.483 144.194V135.071H254.656V143.765C254.656 144.776 254.79 145.624 255.057 146.311C255.343 146.978 255.762 147.483 256.315 147.826C256.887 148.17 257.583 148.341 258.403 148.341C259.032 148.341 259.614 148.236 260.148 148.027C260.681 147.798 261.149 147.493 261.549 147.111C261.949 146.73 262.264 146.282 262.493 145.767C262.722 145.252 262.836 144.709 262.836 144.137V135.071H264.981V150H262.865L262.779 146.854L263.122 146.682C262.893 147.35 262.512 147.96 261.978 148.513C261.444 149.047 260.805 149.476 260.062 149.8C259.337 150.124 258.584 150.286 257.802 150.286ZM279.311 150L274.134 143.336L273.877 143.022L267.67 135.071H270.387L275.478 141.62L275.764 141.992L281.999 150H279.311ZM267.556 150L273.648 142.135L274.935 143.679L270.13 150H267.556ZM275.907 142.678L274.677 141.163L279.025 135.071H281.627L275.907 142.678ZM298.626 150.286C297.272 150.286 296.052 149.952 294.965 149.285C293.897 148.618 293.049 147.702 292.42 146.539C291.809 145.357 291.504 144.023 291.504 142.535C291.504 141.029 291.819 139.694 292.448 138.531C293.077 137.349 293.926 136.425 294.994 135.757C296.061 135.09 297.263 134.756 298.597 134.756C299.341 134.756 300.056 134.871 300.742 135.099C301.448 135.328 302.077 135.652 302.63 136.072C303.183 136.472 303.64 136.939 304.003 137.473C304.365 137.988 304.584 138.531 304.66 139.103L304.003 138.875V128.836H306.148V150H304.031L303.974 146.282L304.517 146.082C304.441 146.616 304.222 147.14 303.86 147.655C303.516 148.151 303.078 148.599 302.544 148.999C302.01 149.399 301.4 149.714 300.714 149.943C300.046 150.172 299.35 150.286 298.626 150.286ZM298.94 148.313C299.932 148.313 300.818 148.065 301.6 147.569C302.382 147.073 302.992 146.387 303.431 145.51C303.888 144.633 304.117 143.632 304.117 142.507C304.117 141.382 303.888 140.39 303.431 139.532C302.992 138.655 302.382 137.969 301.6 137.473C300.818 136.958 299.932 136.701 298.94 136.701C297.911 136.701 297.005 136.958 296.223 137.473C295.461 137.969 294.851 138.655 294.393 139.532C293.954 140.39 293.735 141.382 293.735 142.507C293.735 143.613 293.954 144.604 294.393 145.481C294.832 146.358 295.442 147.054 296.223 147.569C297.005 148.065 297.911 148.313 298.94 148.313ZM316.904 150.286C315.417 150.286 314.092 149.962 312.928 149.314C311.784 148.665 310.888 147.76 310.24 146.597C309.592 145.434 309.268 144.099 309.268 142.593C309.268 141.43 309.449 140.381 309.811 139.447C310.173 138.493 310.679 137.664 311.327 136.958C311.994 136.253 312.785 135.71 313.701 135.328C314.616 134.928 315.607 134.728 316.675 134.728C317.686 134.728 318.601 134.909 319.421 135.271C320.26 135.633 320.975 136.139 321.566 136.787C322.176 137.416 322.633 138.169 322.938 139.046C323.244 139.923 323.377 140.886 323.339 141.935L323.31 142.936H310.869L310.555 141.134H321.68L321.165 141.62V140.934C321.127 140.247 320.927 139.59 320.565 138.96C320.202 138.312 319.688 137.788 319.02 137.387C318.372 136.987 317.59 136.787 316.675 136.787C315.607 136.787 314.683 137.006 313.901 137.445C313.119 137.864 312.519 138.493 312.099 139.332C311.68 140.171 311.47 141.21 311.47 142.45C311.47 143.632 311.699 144.661 312.156 145.538C312.614 146.396 313.262 147.064 314.101 147.54C314.959 148.017 315.989 148.255 317.19 148.255C317.895 148.255 318.591 148.141 319.278 147.912C319.983 147.664 320.755 147.188 321.594 146.482L322.71 148.027C322.271 148.465 321.747 148.856 321.137 149.199C320.527 149.523 319.859 149.79 319.135 150C318.41 150.191 317.667 150.286 316.904 150.286ZM334.401 156.292V135.071H336.546L336.603 138.703L336.203 138.76C336.375 138.036 336.746 137.378 337.318 136.787C337.89 136.177 338.586 135.69 339.406 135.328C340.226 134.966 341.094 134.785 342.009 134.785C343.344 134.785 344.535 135.118 345.584 135.786C346.652 136.453 347.5 137.368 348.129 138.531C348.758 139.694 349.073 141.029 349.073 142.535C349.073 144.023 348.768 145.348 348.158 146.511C347.548 147.674 346.709 148.599 345.641 149.285C344.573 149.952 343.372 150.286 342.037 150.286C341.103 150.286 340.217 150.095 339.378 149.714C338.539 149.333 337.824 148.837 337.233 148.227C336.642 147.598 336.251 146.921 336.06 146.196H336.575V156.292H334.401ZM341.694 148.227C342.705 148.227 343.601 147.979 344.383 147.483C345.164 146.987 345.784 146.311 346.242 145.453C346.699 144.595 346.928 143.622 346.928 142.535C346.928 141.43 346.699 140.448 346.242 139.59C345.784 138.732 345.164 138.055 344.383 137.559C343.601 137.063 342.705 136.815 341.694 136.815C340.684 136.815 339.778 137.063 338.977 137.559C338.196 138.036 337.576 138.703 337.118 139.561C336.661 140.419 336.432 141.401 336.432 142.507C336.432 143.613 336.661 144.595 337.118 145.453C337.576 146.311 338.196 146.987 338.977 147.483C339.778 147.979 340.684 148.227 341.694 148.227ZM352.25 150V128.836H354.395V150H352.25ZM364.171 150.286C362.875 150.286 361.702 149.952 360.654 149.285C359.605 148.599 358.776 147.674 358.165 146.511C357.555 145.329 357.25 143.994 357.25 142.507C357.25 141.001 357.565 139.666 358.194 138.503C358.823 137.34 359.662 136.425 360.711 135.757C361.779 135.09 362.97 134.756 364.286 134.756C365.068 134.756 365.792 134.871 366.459 135.099C367.127 135.328 367.718 135.652 368.233 136.072C368.767 136.472 369.205 136.949 369.548 137.502C369.911 138.036 370.158 138.617 370.292 139.246L369.663 138.932L369.748 135.071H371.893V150H369.72V146.339L370.292 145.967C370.158 146.539 369.901 147.092 369.52 147.626C369.138 148.141 368.671 148.599 368.118 148.999C367.584 149.399 366.974 149.714 366.288 149.943C365.621 150.172 364.915 150.286 364.171 150.286ZM364.658 148.227C365.649 148.227 366.536 147.988 367.317 147.512C368.099 147.016 368.709 146.339 369.148 145.481C369.605 144.604 369.834 143.613 369.834 142.507C369.834 141.401 369.605 140.419 369.148 139.561C368.709 138.703 368.099 138.026 367.317 137.53C366.536 137.035 365.649 136.787 364.658 136.787C363.647 136.787 362.751 137.035 361.969 137.53C361.207 138.026 360.596 138.703 360.139 139.561C359.7 140.419 359.481 141.401 359.481 142.507C359.481 143.594 359.7 144.576 360.139 145.453C360.577 146.311 361.188 146.987 361.969 147.483C362.751 147.979 363.647 148.227 364.658 148.227ZM376.644 150V135.071H378.789V150H376.644ZM377.703 131.839C377.169 131.839 376.759 131.706 376.473 131.439C376.206 131.153 376.072 130.771 376.072 130.295C376.072 129.818 376.215 129.437 376.501 129.151C376.787 128.865 377.188 128.722 377.703 128.722C378.217 128.722 378.618 128.865 378.904 129.151C379.19 129.418 379.333 129.799 379.333 130.295C379.333 130.752 379.19 131.124 378.904 131.41C378.618 131.696 378.217 131.839 377.703 131.839ZM388.364 150.286C387.087 150.286 385.943 150.048 384.932 149.571C383.922 149.094 383.121 148.465 382.53 147.683L384.046 146.368C384.599 147.035 385.247 147.54 385.991 147.884C386.753 148.227 387.602 148.398 388.536 148.398C389.013 148.398 389.442 148.351 389.823 148.255C390.204 148.141 390.538 147.979 390.824 147.769C391.11 147.559 391.329 147.312 391.482 147.026C391.634 146.74 391.711 146.425 391.711 146.082C391.711 145.453 391.434 144.928 390.881 144.509C390.633 144.337 390.281 144.166 389.823 143.994C389.365 143.803 388.812 143.622 388.164 143.451C387.096 143.146 386.21 142.84 385.504 142.535C384.799 142.211 384.246 141.839 383.846 141.42C383.56 141.077 383.34 140.705 383.188 140.305C383.054 139.904 382.988 139.466 382.988 138.989C382.988 138.379 383.111 137.816 383.359 137.302C383.626 136.787 383.989 136.339 384.446 135.957C384.923 135.557 385.476 135.261 386.105 135.071C386.753 134.861 387.449 134.756 388.193 134.756C388.898 134.756 389.594 134.852 390.281 135.042C390.967 135.233 391.606 135.509 392.197 135.872C392.788 136.234 393.293 136.663 393.713 137.159L392.397 138.589C392.035 138.207 391.634 137.864 391.196 137.559C390.757 137.254 390.29 137.016 389.794 136.844C389.318 136.672 388.822 136.587 388.307 136.587C387.85 136.587 387.421 136.644 387.02 136.758C386.639 136.873 386.305 137.035 386.019 137.244C385.752 137.435 385.542 137.673 385.39 137.959C385.256 138.245 385.19 138.56 385.19 138.903C385.19 139.189 385.247 139.447 385.361 139.675C385.476 139.904 385.638 140.104 385.848 140.276C386.114 140.486 386.486 140.686 386.963 140.877C387.459 141.048 388.069 141.229 388.793 141.42C389.632 141.649 390.338 141.887 390.91 142.135C391.501 142.364 391.987 142.64 392.368 142.964C392.883 143.346 393.245 143.784 393.455 144.28C393.684 144.776 393.798 145.338 393.798 145.967C393.798 146.806 393.56 147.55 393.083 148.198C392.626 148.846 391.987 149.361 391.167 149.743C390.347 150.105 389.413 150.286 388.364 150.286ZM402.994 150.286C401.697 150.286 400.525 149.952 399.476 149.285C398.427 148.599 397.598 147.674 396.988 146.511C396.378 145.329 396.073 143.994 396.073 142.507C396.073 141.001 396.387 139.666 397.016 138.503C397.646 137.34 398.484 136.425 399.533 135.757C400.601 135.09 401.793 134.756 403.108 134.756C403.89 134.756 404.614 134.871 405.282 135.099C405.949 135.328 406.54 135.652 407.055 136.072C407.589 136.472 408.027 136.949 408.371 137.502C408.733 138.036 408.981 138.617 409.114 139.246L408.485 138.932L408.571 135.071H410.716V150H408.542V146.339L409.114 145.967C408.981 146.539 408.723 147.092 408.342 147.626C407.961 148.141 407.493 148.599 406.941 148.999C406.407 149.399 405.797 149.714 405.11 149.943C404.443 150.172 403.737 150.286 402.994 150.286ZM403.48 148.227C404.471 148.227 405.358 147.988 406.14 147.512C406.921 147.016 407.532 146.339 407.97 145.481C408.428 144.604 408.657 143.613 408.657 142.507C408.657 141.401 408.428 140.419 407.97 139.561C407.532 138.703 406.921 138.026 406.14 137.53C405.358 137.035 404.471 136.787 403.48 136.787C402.469 136.787 401.573 137.035 400.792 137.53C400.029 138.026 399.419 138.703 398.961 139.561C398.523 140.419 398.303 141.401 398.303 142.507C398.303 143.594 398.523 144.576 398.961 145.453C399.4 146.311 400.01 146.987 400.792 147.483C401.573 147.979 402.469 148.227 403.48 148.227ZM414.895 150V135.071H417.011L417.097 138.188L416.754 138.331C416.944 137.683 417.316 137.092 417.869 136.558C418.422 136.024 419.08 135.595 419.842 135.271C420.624 134.928 421.425 134.756 422.245 134.756C423.351 134.756 424.275 134.975 425.019 135.414C425.763 135.853 426.325 136.529 426.706 137.445C427.088 138.36 427.278 139.523 427.278 140.934V150H425.105V141.048C425.105 140.057 424.971 139.246 424.704 138.617C424.457 137.969 424.066 137.492 423.532 137.187C422.998 136.882 422.34 136.739 421.558 136.758C420.91 136.758 420.31 136.873 419.757 137.101C419.204 137.311 418.727 137.607 418.327 137.988C417.926 138.369 417.612 138.808 417.383 139.304C417.154 139.799 417.04 140.333 417.04 140.905V150H415.981C415.848 150 415.695 150 415.524 150C415.352 150 415.143 150 414.895 150ZM437.665 150.286C436.254 150.286 434.996 149.952 433.89 149.285C432.784 148.599 431.907 147.674 431.259 146.511C430.63 145.329 430.315 143.994 430.315 142.507C430.315 141.02 430.63 139.694 431.259 138.531C431.907 137.349 432.784 136.425 433.89 135.757C434.996 135.09 436.264 134.756 437.694 134.756C438.971 134.756 440.134 135.014 441.183 135.528C442.232 136.024 443.071 136.72 443.7 137.616L442.441 139.161C442.079 138.684 441.641 138.264 441.126 137.902C440.63 137.54 440.087 137.263 439.496 137.073C438.924 136.863 438.352 136.758 437.78 136.758C436.769 136.758 435.863 137.016 435.063 137.53C434.262 138.026 433.623 138.703 433.146 139.561C432.689 140.419 432.46 141.401 432.46 142.507C432.46 143.613 432.689 144.604 433.146 145.481C433.623 146.339 434.262 147.016 435.063 147.512C435.863 148.008 436.76 148.255 437.751 148.255C438.323 148.255 438.885 148.17 439.438 147.998C439.991 147.807 440.516 147.54 441.011 147.197C441.507 146.854 441.965 146.425 442.384 145.91L443.643 147.455C442.994 148.313 442.127 148.999 441.04 149.514C439.953 150.029 438.828 150.286 437.665 150.286ZM453.005 150.286C451.518 150.286 450.193 149.962 449.03 149.314C447.886 148.665 446.99 147.76 446.341 146.597C445.693 145.434 445.369 144.099 445.369 142.593C445.369 141.43 445.55 140.381 445.912 139.447C446.275 138.493 446.78 137.664 447.428 136.958C448.096 136.253 448.887 135.71 449.802 135.328C450.717 134.928 451.709 134.728 452.776 134.728C453.787 134.728 454.702 134.909 455.522 135.271C456.361 135.633 457.076 136.139 457.667 136.787C458.277 137.416 458.735 138.169 459.04 139.046C459.345 139.923 459.478 140.886 459.44 141.935L459.412 142.936H446.971L446.656 141.134H457.781L457.267 141.62V140.934C457.229 140.247 457.028 139.59 456.666 138.96C456.304 138.312 455.789 137.788 455.122 137.387C454.473 136.987 453.692 136.787 452.776 136.787C451.709 136.787 450.784 137.006 450.002 137.445C449.221 137.864 448.62 138.493 448.2 139.332C447.781 140.171 447.571 141.21 447.571 142.45C447.571 143.632 447.8 144.661 448.258 145.538C448.715 146.396 449.364 147.064 450.202 147.54C451.06 148.017 452.09 148.255 453.291 148.255C453.997 148.255 454.693 148.141 455.379 147.912C456.085 147.664 456.857 147.188 457.696 146.482L458.811 148.027C458.373 148.465 457.848 148.856 457.238 149.199C456.628 149.523 455.961 149.79 455.236 150C454.512 150.191 453.768 150.286 453.005 150.286Z" fill="white"/>
</svg>
