<svg width="1440" height="938" viewBox="0 0 1440 938" fill="none" xmlns="http://www.w3.org/2000/svg">
<path d="M0 38.5C0 38.5 376.5 0 720 0C1063.5 0 1440 38.5 1440 38.5V937.5H0V38.5Z" fill="#002B80"/>
<path fill-rule="evenodd" clip-rule="evenodd" d="M398.199 9.06228C399.448 28.1527 400.92 54.3853 401.141 72.0972C401.512 101.819 382.193 84.3576 368.447 66.8959C358.185 53.8603 341.504 34.1991 316.859 13.6314C253.313 17.4988 195.508 21.6979 147.183 25.5253C274.265 82.3329 405.027 197.804 425.434 216.493C428.064 218.902 430.857 221.569 433.731 224.313L433.737 224.319L433.741 224.323L433.743 224.324L433.746 224.327L433.747 224.329L433.75 224.331L433.752 224.333L433.752 224.333C456.417 245.977 484.06 272.374 476.05 214.459C468.736 161.575 471.626 59.1588 475.283 5.47799C449.135 6.56245 423.376 7.76929 398.199 9.06228ZM1304.21 26.435C1308.37 35.07 1314.45 41.6044 1322.25 45.5722C1338.2 53.6789 1359.77 48.4373 1381.59 32.9994C1418.69 36.3207 1440 38.4998 1440 38.4998V118.002C1423.03 130.151 1399.62 141.008 1372.68 140.26C1316.74 138.706 1299.65 174.44 1347.82 275.427C1373.44 329.147 1406.97 372.316 1440 403.296V562.959C1341.6 498.201 1202.33 331.792 1186.53 17.712C1230.06 20.6645 1269.79 23.6656 1304.21 26.435ZM1090.04 937.5H975.096C956.698 875.766 917.086 794.939 839.715 714.051C682.326 549.508 652.517 513.737 589.323 365.886C540.357 251.325 550.823 80.5385 563.085 2.38146C598.116 1.3741 633.446 0.644885 668.646 0.275045C651.007 96.5487 651.079 321.326 801.347 513.44C837.218 559.301 872.372 598.875 905.31 635.954C990.132 731.44 1060.25 810.374 1090.04 937.5ZM0 417.011V293.5C51.8774 324.925 102.422 377.287 106.968 446.485C111.636 517.551 55.0239 561.432 0 582.448V473.081C7.11842 464.49 11.5008 454.915 11.4738 445.154C11.4443 434.454 6.95638 425.07 0 417.011ZM133.243 278.789C108.081 242.618 51.5827 206.615 0 179.761V61.3855C138.341 107.771 197.286 150.797 317.051 238.219L317.068 238.232L317.292 238.395C322.529 242.217 327.881 246.124 333.361 250.119C524.982 389.827 567.833 522.896 476.05 763.379C444.866 845.085 426.422 898.69 415.58 937.5H329.551C346.745 854.144 339.559 812.988 300.166 771.832C248.389 717.736 193.521 641.229 190.429 536.902C187.338 432.575 182.701 349.886 133.243 278.789ZM207.431 778.787C247.353 824.823 251.375 885.122 242.379 937.5H130.801C135.001 909.29 132.842 881.002 120.122 855.561C95.5983 806.514 46.0743 781.307 0 769.529V672.394C76.5357 679.186 141.437 702.686 207.431 778.787ZM40.0724 901.068C48.743 912.705 52.7795 925.113 53.6233 937.5H0V862.049C13.712 871.543 27.5147 884.214 40.0724 901.068ZM643.099 757.212C581.686 789.34 548.603 869.015 533.253 937.5H651.605C663.66 907.488 680.027 889.9 698.9 889.232C714.017 888.697 730.366 906.907 743.186 937.5H858.974C828.291 832.251 753.667 699.368 643.099 757.212ZM587.614 633.459C584.391 658.774 591.631 679.774 608.759 681.955C625.887 684.135 646.418 666.671 649.641 641.357C652.864 616.042 644.439 595.481 627.311 593.3C610.182 591.12 590.838 608.145 587.614 633.459ZM1074.73 10.8189C973.486 5.22003 860.975 0.806981 750.599 0.0991211C733.045 141.354 775.063 226.166 813.497 254.534C852.754 283.509 949.961 349.871 1063.99 362.022C1178.02 374.173 1192.04 311.549 1144.37 218.081C1111.09 152.814 1086.3 62.3873 1074.73 10.8189ZM1440 689.895C1406.59 670.335 1373.7 637.736 1343.46 598.496C1336.3 589.201 1329.73 579.608 1323.16 570.005C1289.42 520.699 1255.48 471.116 1139.7 460.164C1057.13 452.352 998.867 425.316 955.376 405.133C926.008 391.504 903.374 381.001 884.533 381.65C803.216 384.454 896.684 491.008 926.594 519.983C928.238 521.576 930.055 523.324 932.033 525.228C966.038 557.954 1047.8 636.637 1122.88 762.066C1159.41 823.102 1177.93 886.445 1186.42 937.5H1281.63C1277.86 921.683 1273.48 905.497 1268.51 890.217C1249.32 831.179 1229.9 741.666 1319.71 760.969C1354.96 768.547 1377.93 777.16 1396.88 784.269C1412.43 790.1 1425.28 794.919 1440 797.324V689.895ZM1440 881.18C1394.12 843.414 1332.29 814.436 1332.29 877.628C1332.29 899.063 1335.89 919.212 1341.42 937.5H1440V881.18ZM1440 211.463V282.01C1438.69 279.828 1437.46 277.632 1436.33 275.427C1414.31 232.566 1425.07 219.636 1440 211.463ZM301.32 534.98C328.33 608.32 365.554 659.616 393.896 649.178C422.239 638.74 430.968 570.519 403.957 497.18C376.947 423.84 338.502 374.903 310.16 385.341C281.817 395.779 274.31 461.641 301.32 534.98ZM1038.67 244.705C1019.79 267.325 964.249 252.457 903.587 198.671C846.424 150.968 821.746 92.5068 840.622 69.8869C859.498 47.2671 914.78 69.0542 971.944 116.757C1029.11 164.46 1057.54 222.085 1038.67 244.705ZM1160.09 640.372C1216.31 673.997 1263.55 676.054 1271.08 662.712C1281 645.135 1248.4 606.28 1196 576.718C1143.6 547.157 1096.24 538.33 1087.69 553.492C1077.77 571.069 1107.69 610.81 1160.09 640.372ZM98.5908 625.655C105.639 647.602 118.078 662.504 130.259 658.591C142.44 654.679 149.75 633.435 142.702 611.489C135.654 589.542 122.585 575.398 110.404 579.31C98.2234 583.222 91.5423 603.709 98.5908 625.655Z" fill="#003499"/>
</svg>
