<svg width="111" height="129" viewBox="0 0 111 129" fill="none" xmlns="http://www.w3.org/2000/svg">
<mask id="mask0_133_16898" style="mask-type:alpha" maskUnits="userSpaceOnUse" x="0" y="0" width="111" height="129">
<path fill-rule="evenodd" clip-rule="evenodd" d="M50.3611 128.901C84.1644 127.035 111 99.0334 111 64.7639C111 30.4945 84.1644 2.49279 50.3611 0.626858V0.527886H46.8483C46.8201 0.52785 46.792 0.527832 46.7639 0.527832C46.7606 0.527832 46.7573 0.52785 46.7541 0.527886H0V129H50.3611V128.901Z" fill="#D9D9D9"/>
</mask>
<g mask="url(#mask0_133_16898)">
<path d="M61.368 45.7455C54.1708 16.4606 35.3365 5.10936 26.7222 -1.52786C26.7222 -1.52786 55.2103 -3.27966 72.4583 0.809353C89.7063 4.89837 101.75 29.4325 101.75 29.4325C91.2062 48.6938 79.262 51.8281 70.1543 52.5615C66.017 52.8946 62.3586 49.7762 61.368 45.7455Z" fill="#D7D7D7"/>
<path d="M61.368 45.7455C54.1708 16.4606 35.3365 5.10936 26.7222 -1.52786C26.7222 -1.52786 55.2103 -3.27966 72.4583 0.809353C89.7063 4.89837 101.75 29.4325 101.75 29.4325C91.2062 48.6938 79.262 51.8281 70.1543 52.5615C66.017 52.8946 62.3586 49.7762 61.368 45.7455Z" fill="white"/>
<path d="M37.1968 57.4832C13.3806 65.4525 2.54166 81.262 0 88.9167L-3.76411e-06 0.527855C27.6162 14.5746 39.8706 33.2489 44.2487 45.8666C46.0207 50.9735 42.3231 55.7679 37.1968 57.4832Z" fill="white"/>
<path d="M54.1242 72.8106C13.8222 75.1119 0 121.859 0 130.028H59.4919C109.143 124.826 117.642 67.609 109.143 44.7222C101.092 59.2865 99.6713 70.2098 54.1242 72.8106Z" fill="white"/>
</g>
</svg>
